<svg xmlns:dc="http://purl.org/dc/elements/1.1/" xmlns:cc="http://creativecommons.org/ns#"
   xmlns:rdf="http://www.w3.org/1999/02/22-rdf-syntax-ns#" xmlns:svg="http://www.w3.org/2000/svg"
   xmlns="http://www.w3.org/2000/svg" xmlns:sodipodi="http://sodipodi.sourceforge.net/DTD/sodipodi-0.dtd"
   xmlns:inkscape="http://www.inkscape.org/namespaces/inkscape" version="1.1" viewBox="0 0 132.29167 132.29167"
   height="500" width="500">
   <defs id="defs53" />
   <g id="layer1">
      <path style="stroke-width:8.38575" fill-rule="evenodd"
         d="M 66.253626,-0.04297469 C 29.648504,-0.04297469 0,30.355462 0,67.886469 c 0,30.058747 18.965105,55.447401 45.300925,64.448091 3.312686,0.59374 4.55494,-1.44415 4.55494,-3.22657 0,-1.61346 -0.08295,-6.96286 -0.08295,-12.6519 -16.646255,3.1417 -20.952745,-4.16066 -22.277808,-7.98175 -0.74543,-1.95302 -3.975217,-7.98177 -6.791002,-9.595072 -2.318882,-1.274074 -5.631552,-4.415301 -0.08295,-4.500353 5.217472,-0.08003 8.944239,4.924952 10.186493,6.962835 5.962826,10.27428 15.486795,7.38741 19.296382,5.60415 0.579688,-4.41545 2.318865,-7.387222 4.223666,-9.085568 C 39.586255,96.162145 24.182284,90.30315 24.182284,64.320179 c 0,-7.387327 2.567336,-13.500979 6.791003,-18.256039 -0.662483,-1.698231 -2.981413,-8.661005 0.662485,-18.001299 0,0 5.548729,-1.78315 18.219734,6.962757 5.300295,-1.528408 10.931853,-2.292622 16.563425,-2.292622 5.631551,0 11.263102,0.764284 16.563421,2.292622 12.670981,-8.830822 18.219748,-6.962757 18.219748,-6.962757 3.64394,9.340294 1.32512,16.303068 0.66248,18.001299 4.22367,4.75506 6.79098,10.783803 6.79098,18.256039 0,26.068014 -15.486773,31.841966 -30.228212,33.540153 2.401686,2.122766 4.472126,6.198538 4.472126,12.566988 0,9.08559 -0.08296,16.38798 -0.08296,18.68067 0,1.78306 1.242338,3.90581 4.554941,3.22657 A 66.361295,68.039839 0 0 0 132.50728,67.886469 c 0,-37.531007 -29.6485,-67.92944369 -66.253654,-67.92944369 z"
         id="path20" />
   </g>
</svg>